# Blender 4.3.2
# www.blender.org
mtllib creachur.mtl
o Cube
v 0.268706 0.458285 -0.381058
v 0.268706 0.163425 -0.293086
v 0.268706 0.458285 0.381058
v 0.268706 0.163425 0.293086
v -1.000000 1.000000 -0.570913
v -1.000000 0.198992 0.000000
v -1.000000 1.000000 0.570913
v 0.268706 0.458285 0.000000
v -1.000000 1.000000 0.000000
v -0.254214 1.000000 0.635645
v -0.254214 1.000000 -0.610361
v -0.254214 1.000000 0.000000
v -0.254214 0.032522 0.000018
v -0.254214 0.516261 0.565844
v -0.047637 0.579463 -0.446224
v -0.047637 0.579463 0.446187
v -0.047637 0.579463 0.000000
v -0.493428 1.000000 0.762116
v -0.493428 1.000000 -0.762116
v -0.493428 1.000000 0.000000
v -0.446906 2.007546 0.381058
v -0.446906 1.999036 -0.381058
v -1.356589 0.672495 0.000000
v 0.360562 0.280040 0.000000
v -0.254214 1.000000 0.635645
v -0.254214 0.516261 -0.553184
v -0.150926 0.305993 0.419410
v -0.150926 0.305993 -0.419410
vn -0.2782 -0.6041 0.7468
vn -0.2828 -0.6053 0.7441
vn -0.2328 -0.5911 0.7722
vn -0.3393 -0.5660 0.7514
vn -0.3647 -0.5587 0.7449
vn -0.8195 0.5730 -0.0000
vn -0.7748 0.6323 -0.0000
vn -0.6764 0.7365 -0.0000
vn 0.2428 -0.9701 -0.0000
vn 0.9598 -0.0802 0.2689
vn 0.4924 -0.1620 -0.8552
vn -0.3562 -0.5592 -0.7486
vn -0.3298 -0.5663 -0.7553
vn -0.2196 -0.5908 -0.7764
vn -0.2801 -0.6033 -0.7467
vn -0.2731 -0.6020 -0.7503
vn 0.5335 -0.1782 0.8268
vn 0.9989 -0.0465 -0.0000
vn -0.3312 0.3471 0.8774
vn -0.3308 0.3497 -0.8765
vn -0.8766 0.4812 -0.0000
vn 0.9989 -0.0461 -0.0000
vn -0.0000 0.3537 -0.9353
vn -0.8181 0.5751 -0.0000
vn -0.8749 0.4844 -0.0000
vn -0.0000 0.3564 0.9343
vn -0.6104 -0.4597 -0.6450
vn -0.6104 -0.4597 0.6450
vn 0.7856 -0.6188 -0.0000
vn 0.8889 0.4581 -0.0000
vn 0.9598 -0.0802 -0.2689
vn 0.0328 -0.5646 0.8247
vn 0.0328 -0.5647 -0.8247
vn 0.8976 0.4409 -0.0000
vn 0.3577 0.9338 -0.0000
vn -0.0000 1.0000 -0.0000
vn -0.5307 -0.6442 0.5508
vn -0.5623 -0.6225 -0.5444
vt 0.375000 0.875000
vt 0.500000 0.875000
vt 0.625000 0.875000
vt 0.625000 0.937500
vt 0.625000 1.000000
vt 0.375000 1.000000
vt 0.625000 0.000000
vt 0.625000 0.125000
vt 0.250000 0.500000
vt 0.375000 0.500000
vt 0.375000 0.750000
vt 0.625000 0.750000
vt 0.500000 0.375000
vt 0.625000 0.375000
vt 0.625000 0.437500
vt 0.500000 0.406250
vt 0.375000 0.250000
vt 0.625000 0.250000
vt 0.625000 0.312500
vt 0.375000 0.375000
vt 0.500000 0.843750
vt 0.625000 0.812500
vt 0.000000 0.000000
vt 0.625000 0.500000
s 1
usemtl Material
f 13/1/1 14/2/2 10/3/3 18/4/3 7/5/4 6/6/5
f 7/7/6 9/8/7 23/7/8
f 13/9/9 2/10/9 4/11/9
f 3/12/10 4/11/10 24/12/10
f 26/13/11 11/14/11 15/15/11 28/16/11
f 6/17/12 5/18/13 19/19/14 11/14/14 26/13/15 13/20/16
f 27/21/17 16/22/17 10/3/17 14/2/17
f 20/23/18 19/23/18 22/23/18
f 7/5/19 18/4/19 21/5/19
f 19/19/20 5/18/20 22/19/20
f 9/8/7 7/7/6 21/8/21
f 18/23/22 20/23/22 21/23/22
f 20/23/23 9/8/23 21/23/23
f 5/18/24 9/8/7 22/18/25
f 9/8/26 20/23/26 22/8/26
f 9/8/7 5/18/24 23/8/8
f 5/18/13 6/17/12 23/18/27
f 6/6/5 7/5/4 23/6/28
f 4/11/29 2/10/29 24/11/29
f 8/23/30 3/23/30 24/23/30
f 2/10/31 1/24/31 24/10/31
f 1/23/30 8/23/30 24/23/30
f 4/11/32 3/12/32 16/22/32 27/21/32 13/1/32
f 2/10/33 13/20/33 28/16/33 15/15/33 1/24/33
f 25/23/34 16/23/34 17/23/34 12/23/34
f 17/23/34 15/15/34 11/14/34 12/23/34
f 15/15/35 17/23/35 8/23/35 1/23/35
f 8/23/35 17/23/35 16/23/35 3/12/35
f 12/23/36 20/23/36 18/23/36 25/23/36
f 11/14/36 19/23/36 20/23/36 12/23/36
f 13/1/1 27/21/37 14/2/2
f 13/20/16 26/13/15 28/16/38
l 10 12
