# Blender 4.3.2
# www.blender.org
mtllib road_10m.mtl
g Road_10M_Plane.001
v -5.000000 -0.100000 2.750000
v 5.000000 -0.100000 2.750000
v -5.000000 -0.100000 -2.750000
v 5.000000 -0.100000 -2.750000
v -5.000000 -0.100000 3.000000
v 5.000000 -0.100000 3.000000
v -5.000000 -0.100000 -3.000000
v 5.000000 -0.100000 -3.000000
v -5.000000 0.100000 2.750000
v 5.000000 0.100000 2.750000
v 5.000000 0.100000 -2.750000
v -5.000000 0.100000 -2.750000
v -5.000000 0.100000 3.000000
v 5.000000 0.100000 3.000000
v 5.000000 0.100000 -3.000000
v -5.000000 0.100000 -3.000000
vn -0.0000 1.0000 -0.0000
vn -0.0000 -0.0000 1.0000
vn -0.0000 -0.0000 -1.0000
vt -1.683134 9.678473
vt -1.683134 2.321526
vt 2.363186 2.321526
vt 2.363187 9.678473
vt -1.075056 4.318141
vt -1.075056 0.155221
vt -0.991798 0.155221
vt -0.991797 4.318141
vt 1.568398 4.318141
vt 1.568398 0.155221
vt 1.672472 0.155221
vt 1.672472 4.318141
vt -0.887725 0.155221
vt -0.887724 4.318141
vt 1.755730 0.155221
vt 1.755730 4.318141
vt 1.485140 4.318141
vt 1.485140 0.155221
vt -0.804466 0.155221
vt -0.804466 4.318141
s 0
usemtl StoneRoad
f 1/1/1 2/2/1 4/3/1 3/4/1
usemtl Siding
f 5/5/2 6/6/2 14/7/2 13/8/2
f 12/9/1 11/10/1 15/11/1 16/12/1
f 10/13/1 9/14/1 13/8/1 14/7/1
f 8/15/3 7/16/3 16/12/3 15/11/3
f 3/17/2 4/18/2 11/10/2 12/9/2
f 2/19/3 1/20/3 9/14/3 10/13/3
