# Blender 4.3.2
# www.blender.org
mtllib Snow_10M.mtl
g Snow_10M_Plane.003
v -5.000000 -0.105301 5.000000
v 5.000000 0.254312 5.000000
v -5.000000 0.259560 -5.000000
v 5.000000 -0.223343 -5.000000
v -5.000000 -0.247227 0.000000
v 0.000000 -0.309041 5.000000
v 5.000000 -0.099712 0.000000
v 0.000000 -0.195796 -5.000000
v 0.000000 0.083657 0.000000
v -5.000000 0.102708 2.500000
v 2.500000 0.313128 5.000000
v 5.000000 -0.160293 -2.500000
v -2.500000 -0.139352 -5.000000
v -5.000000 -0.200381 -2.500000
v -2.500000 -0.360354 5.000000
v 5.000000 0.018684 2.500000
v 2.500000 -0.155815 -5.000000
v 0.000000 0.344836 -2.500000
v 0.000000 -0.414534 2.500000
v -2.500000 -0.340441 0.000000
v 2.500000 0.264431 0.000000
v 2.500000 0.131823 2.500000
v -2.500000 -0.490648 2.500000
v -2.500000 -0.206473 -2.500000
v 2.500000 0.534367 -2.500000
v -5.000000 0.059610 3.750000
v 3.750000 0.425120 5.000000
v 5.000000 -0.218082 -3.750000
v -3.750000 0.108703 -5.000000
v -5.000000 -0.373785 -1.250000
v -1.250000 -0.428359 5.000000
v 5.000000 -0.113316 1.250000
v 1.250000 -0.131765 -5.000000
v 0.000000 0.160046 -3.750000
v 0.000000 -0.307419 1.250000
v -3.750000 -0.147266 0.000000
v 1.250000 0.316541 0.000000
v -5.000000 -0.031311 1.250000
v 1.250000 0.026945 5.000000
v 5.000000 -0.092445 -1.250000
v -1.250000 -0.275336 -5.000000
v -5.000000 0.083267 -3.750000
v -3.750000 -0.167942 5.000000
v 5.000000 0.223798 3.750000
v 3.750000 -0.211774 -5.000000
v 0.000000 0.396417 -1.250000
v 0.000000 -0.273563 3.750000
v -1.250000 -0.252330 0.000000
v 3.750000 0.139467 0.000000
v 2.500000 0.032450 1.250000
v 2.500000 0.429274 3.750000
v 1.250000 -0.128188 2.500000
v 3.750000 0.231547 2.500000
v -2.500000 -0.463923 1.250000
v -2.500000 -0.345888 3.750000
v -3.750000 -0.007099 2.500000
v -1.250000 -0.657645 2.500000
v -2.500000 -0.047412 -3.750000
v -2.500000 -0.250654 -1.250000
v -3.750000 -0.091189 -2.500000
v -1.250000 -0.030491 -2.500000
v 2.500000 0.277712 -3.750000
v 2.500000 0.523264 -1.250000
v 1.250000 0.597901 -2.500000
v 3.750000 0.271994 -2.500000
v 3.750000 0.290563 -1.250000
v 1.250000 0.610221 -1.250000
v 1.250000 0.322199 -3.750000
v -1.250000 -0.017908 -1.250000
v -3.750000 -0.227744 -1.250000
v -3.750000 0.163795 -3.750000
v -1.250000 -0.486883 3.750000
v -3.750000 0.053350 3.750000
v -3.750000 -0.075764 1.250000
v 3.750000 0.541906 3.750000
v 1.250000 0.098116 3.750000
v 1.250000 -0.055013 1.250000
v 3.750000 0.037639 1.250000
v -1.250000 -0.549392 1.250000
v -1.250000 -0.065886 -3.750000
v 3.750000 0.099298 -3.750000
vn 0.0272 0.9879 0.1526
vn 0.1918 0.9808 0.0338
vn 0.0281 0.9984 0.0484
vn 0.1294 0.9837 -0.1245
vn -0.0605 0.9933 -0.0980
vn -0.2007 0.9795 0.0153
vn 0.1971 0.9789 0.0534
vn -0.1027 0.9596 -0.2618
vn -0.2147 0.9452 0.2459
vn 0.0539 0.9976 -0.0435
vn -0.1650 0.9828 0.0827
vn 0.2978 0.9527 -0.0611
vn 0.1197 0.9888 -0.0895
vn -0.0879 0.9824 0.1650
vn 0.1555 0.9872 0.0360
vn 0.1720 0.9718 -0.1614
vn 0.0584 0.9492 -0.3091
vn -0.2195 0.9723 -0.0797
vn -0.2078 0.9778 -0.0262
vn 0.0474 0.9956 0.0803
vn 0.0576 0.9809 0.1860
vn -0.1232 0.9823 -0.1411
vn 0.2168 0.9754 -0.0407
vn -0.0112 0.9972 0.0739
vn 0.1162 0.9888 -0.0937
vn 0.0370 0.9967 0.0724
vn 0.0513 0.9966 0.0639
vn 0.2063 0.9726 -0.1071
vn 0.1046 0.9945 -0.0047
vn -0.0997 0.9948 0.0196
vn -0.0242 0.9996 -0.0134
vn 0.1491 0.9880 -0.0403
vn -0.0306 0.9465 -0.3211
vn -0.1512 0.9685 -0.1978
vn -0.2019 0.9640 0.1732
vn 0.0482 0.9979 -0.0438
vn -0.0765 0.9672 0.2423
vn 0.0200 0.9950 -0.0974
vn -0.2559 0.9650 0.0565
vn 0.2759 0.9611 0.0143
vn -0.0279 0.9851 -0.1697
vn -0.0231 0.9913 0.1299
vn 0.1304 0.9839 0.1223
vn 0.1992 0.9763 -0.0847
vn 0.1104 0.9730 -0.2029
vn -0.2331 0.9677 0.0958
vn -0.2096 0.9761 -0.0579
vn -0.1550 0.9694 0.1906
vn 0.1459 0.9842 0.1001
vn -0.0371 0.9975 0.0602
vn -0.1575 0.9853 -0.0659
vn -0.2077 0.9758 -0.0680
vn 0.0561 0.9836 -0.1717
vn 0.1622 0.9850 0.0581
vn 0.1927 0.9807 -0.0321
vn 0.1894 0.9808 -0.0460
vn -0.0354 0.9990 -0.0267
vn 0.0776 0.9969 0.0092
vn -0.0362 0.9979 0.0546
vn 0.0026 0.9897 0.1428
vn -0.1889 0.9819 -0.0116
vn 0.0836 0.9653 -0.2474
vn 0.1120 0.9894 0.0925
vn -0.0593 0.9931 -0.1015
vn 0.2392 0.9682 -0.0736
vn 0.2204 0.9742 0.0480
vn -0.0588 0.9930 0.1028
vn -0.0457 0.9657 -0.2554
vn -0.2199 0.9721 0.0817
vn -0.0146 0.9995 0.0292
vn 0.0659 0.9938 0.0900
vn -0.0264 0.9972 -0.0694
vn 0.1549 0.9871 0.0414
vn 0.1476 0.9878 -0.0493
vn 0.0534 0.9958 -0.0737
vn -0.2483 0.9670 -0.0571
vn -0.1385 0.9794 0.1467
vn 0.0767 0.9969 -0.0172
vn -0.0738 0.9877 0.1382
vn -0.0878 0.9916 -0.0948
vn 0.1709 0.9709 -0.1679
vt 0.875000 0.875000
vt 1.000000 0.875000
vt 1.000000 1.000000
vt 0.875000 1.000000
vt 0.375000 0.875000
vt 0.500000 0.875000
vt 0.500000 1.000000
vt 0.375000 1.000000
vt 0.375000 0.375000
vt 0.500000 0.375000
vt 0.500000 0.500000
vt 0.375000 0.500000
vt 0.875000 0.375000
vt 1.000000 0.375000
vt 1.000000 0.500000
vt 0.875000 0.500000
vt 0.625000 0.375000
vt 0.750000 0.375000
vt 0.750000 0.500000
vt 0.625000 0.500000
vt 0.625000 0.125000
vt 0.750000 0.125000
vt 0.750000 0.250000
vt 0.625000 0.250000
vt 0.875000 0.125000
vt 1.000000 0.125000
vt 1.000000 0.250000
vt 0.875000 0.250000
vt 0.125000 0.375000
vt 0.250000 0.375000
vt 0.250000 0.500000
vt 0.125000 0.500000
vt 0.125000 0.125000
vt 0.250000 0.125000
vt 0.250000 0.250000
vt 0.125000 0.250000
vt 0.375000 0.125000
vt 0.500000 0.125000
vt 0.500000 0.250000
vt 0.375000 0.250000
vt 0.125000 0.875000
vt 0.250000 0.875000
vt 0.250000 1.000000
vt 0.125000 1.000000
vt 0.125000 0.625000
vt 0.250000 0.625000
vt 0.250000 0.750000
vt 0.125000 0.750000
vt 0.375000 0.625000
vt 0.500000 0.625000
vt 0.500000 0.750000
vt 0.375000 0.750000
vt 0.625000 0.875000
vt 0.750000 0.875000
vt 0.750000 1.000000
vt 0.625000 1.000000
vt 0.625000 0.625000
vt 0.750000 0.625000
vt 0.750000 0.750000
vt 0.625000 0.750000
vt 0.875000 0.625000
vt 1.000000 0.625000
vt 1.000000 0.750000
vt 0.875000 0.750000
vt 0.000000 0.625000
vt 0.000000 0.750000
vt 0.000000 0.500000
vt 0.000000 0.875000
vt 0.000000 1.000000
vt 0.250000 0.000000
vt 0.375000 0.000000
vt 0.500000 0.000000
vt 0.000000 0.125000
vt 0.000000 0.250000
vt 0.000000 0.000000
vt 0.125000 0.000000
vt 0.000000 0.375000
vt 0.750000 0.000000
vt 0.875000 0.000000
vt 1.000000 0.000000
vt 0.625000 0.000000
s 1
usemtl Snow
f 81/1/81 28/2/28 4/3/4 45/4/45
f 80/5/80 34/6/34 8/7/8 41/8/41
f 79/9/79 35/10/35 9/11/9 48/12/48
f 78/13/78 32/14/32 7/15/7 49/16/49
f 77/17/77 50/18/50 21/19/21 37/20/37
f 76/21/76 51/22/51 22/23/22 52/24/52
f 75/25/75 44/26/44 16/27/16 53/28/53
f 74/29/74 54/30/54 20/31/20 36/32/36
f 73/33/73 55/34/55 23/35/23 56/36/56
f 72/37/72 47/38/47 19/39/19 57/40/57
f 71/41/71 58/42/58 13/43/13 29/44/29
f 70/45/70 59/46/59 24/47/24 60/48/60
f 69/49/69 46/50/46 18/51/18 61/52/61
f 68/53/68 62/54/62 17/55/17 33/56/33
f 67/57/67 63/58/63 25/59/25 64/60/64
f 66/61/66 40/62/40 12/63/12 65/64/65
f 63/58/63 66/61/66 65/64/65 25/59/25
f 21/19/21 49/16/49 66/61/66 63/58/63
f 49/16/49 7/15/7 40/62/40 66/61/66
f 46/50/46 67/57/67 64/60/64 18/51/18
f 9/11/9 37/20/37 67/57/67 46/50/46
f 37/20/37 21/19/21 63/58/63 67/57/67
f 34/6/34 68/53/68 33/56/33 8/7/8
f 18/51/18 64/60/64 68/53/68 34/6/34
f 64/60/64 25/59/25 62/54/62 68/53/68
f 59/46/59 69/49/69 61/52/61 24/47/24
f 20/31/20 48/12/48 69/49/69 59/46/59
f 48/12/48 9/11/9 46/50/46 69/49/69
f 30/65/30 70/45/70 60/48/60 14/66/14
f 5/67/5 36/32/36 70/45/70 30/65/30
f 36/32/36 20/31/20 59/46/59 70/45/70
f 42/68/42 71/41/71 29/44/29 3/69/3
f 14/66/14 60/48/60 71/41/71 42/68/42
f 60/48/60 24/47/24 58/42/58 71/41/71
f 55/34/55 72/37/72 57/40/57 23/35/23
f 15/70/15 31/71/31 72/37/72 55/34/55
f 31/71/31 6/72/6 47/38/47 72/37/72
f 26/73/26 73/33/73 56/36/56 10/74/10
f 1/75/1 43/76/43 73/33/73 26/73/26
f 43/76/43 15/70/15 55/34/55 73/33/73
f 38/77/38 74/29/74 36/32/36 5/67/5
f 10/74/10 56/36/56 74/29/74 38/77/38
f 56/36/56 23/35/23 54/30/54 74/29/74
f 51/22/51 75/25/75 53/28/53 22/23/22
f 11/78/11 27/79/27 75/25/75 51/22/51
f 27/79/27 2/80/2 44/26/44 75/25/75
f 47/38/47 76/21/76 52/24/52 19/39/19
f 6/72/6 39/81/39 76/21/76 47/38/47
f 39/81/39 11/78/11 51/22/51 76/21/76
f 35/10/35 77/17/77 37/20/37 9/11/9
f 19/39/19 52/24/52 77/17/77 35/10/35
f 52/24/52 22/23/22 50/18/50 77/17/77
f 50/18/50 78/13/78 49/16/49 21/19/21
f 22/23/22 53/28/53 78/13/78 50/18/50
f 53/28/53 16/27/16 32/14/32 78/13/78
f 54/30/54 79/9/79 48/12/48 20/31/20
f 23/35/23 57/40/57 79/9/79 54/30/54
f 57/40/57 19/39/19 35/10/35 79/9/79
f 58/42/58 80/5/80 41/8/41 13/43/13
f 24/47/24 61/52/61 80/5/80 58/42/58
f 61/52/61 18/51/18 34/6/34 80/5/80
f 62/54/62 81/1/81 45/4/45 17/55/17
f 25/59/25 65/64/65 81/1/81 62/54/62
f 65/64/65 12/63/12 28/2/28 81/1/81
