# Blender 4.3.2
# www.blender.org
mtllib Snow_3M.mtl
g Snow_3M_Plane.008
v -1.500000 -0.134376 1.500000
v 1.500000 -0.274533 1.500000
v -1.500000 -0.021018 -1.500000
v 1.500000 -0.061602 -1.500000
v -1.500000 0.067808 0.000000
v 0.000000 -0.269525 1.500000
v 1.500000 -0.106759 0.000000
v 0.000000 -0.042133 -1.500000
v 0.000000 0.131262 0.000000
v -1.500000 -0.060164 0.750000
v 0.750000 -0.262660 1.500000
v 1.500000 -0.016367 -0.750000
v -0.750000 0.001672 -1.500000
v -1.500000 0.053362 -0.750000
v -0.750000 -0.126064 1.500000
v 1.500000 -0.169068 0.750000
v 0.750000 -0.074426 -1.500000
v 0.000000 0.231250 -0.750000
v 0.000000 -0.057669 0.750000
v -0.750000 0.138032 0.000000
v 0.750000 0.161181 0.000000
v 0.750000 -0.004456 0.750000
v -0.750000 0.170945 0.750000
v -0.750000 0.153001 -0.750000
v 0.750000 0.204633 -0.750000
vn 0.0816 0.9552 -0.2844
vn 0.1344 0.9685 -0.2094
vn 0.0881 0.9573 -0.2753
vn -0.0662 0.9943 -0.0835
vn 0.0074 0.9510 -0.3092
vn 0.0077 0.9508 -0.3096
vn -0.0520 0.9764 -0.2094
vn 0.1863 0.9638 0.1909
vn 0.0740 0.9670 0.2439
vn 0.0124 0.9920 0.1258
vn -0.0515 0.9968 0.0604
vn 0.0772 0.9710 0.2262
vn 0.1889 0.9628 0.1933
vn 0.2903 0.9498 0.1169
vn 0.2934 0.9495 0.1116
vn -0.0269 0.9868 0.1598
vn 0.0841 0.9477 0.3079
vn 0.0391 0.9629 0.2668
vn 0.1136 0.9656 0.2341
vn -0.1741 0.9723 0.1561
vn -0.1783 0.9741 0.1392
vn -0.1546 0.9875 0.0311
vn -0.1531 0.9593 0.2374
vn 0.2287 0.9219 0.3127
vn -0.0966 0.9925 -0.0748
vn -0.0804 0.9857 -0.1483
vn -0.0246 0.9960 0.0859
vn -0.0022 0.9955 0.0952
vn 0.3088 0.9474 0.0845
vt 0.750000 0.750000
vt 1.000000 0.750000
vt 1.000000 1.000000
vt 0.750000 1.000000
vt 0.250000 0.750000
vt 0.500000 0.750000
vt 0.500000 1.000000
vt 0.250000 1.000000
vt 0.250000 0.250000
vt 0.500000 0.250000
vt 0.500000 0.500000
vt 0.250000 0.500000
vt 0.750000 0.250000
vt 1.000000 0.250000
vt 1.000000 0.500000
vt 0.750000 0.500000
vt 0.500000 0.000000
vt 0.750000 0.000000
vt 1.000000 0.000000
vt 0.000000 0.250000
vt 0.000000 0.500000
vt 0.000000 0.000000
vt 0.250000 0.000000
vt 0.000000 0.750000
vt 0.000000 1.000000
s 1
usemtl Snow
f 25/1/1 12/2/2 4/3/2 17/4/3
f 24/5/4 18/6/5 8/7/6 13/8/7
f 23/9/8 19/10/9 9/11/10 20/12/11
f 22/13/12 16/14/13 7/15/14 21/16/15
f 19/10/9 22/13/12 21/16/16 9/11/10
f 6/17/17 11/18/18 22/13/12 19/10/9
f 11/18/18 2/19/19 16/14/13 22/13/12
f 10/20/20 23/9/21 20/12/11 5/21/22
f 1/22/23 15/23/23 23/9/21 10/20/20
f 15/23/24 6/17/17 19/10/9 23/9/8
f 14/24/25 24/5/4 13/8/7 3/25/26
f 5/21/22 20/12/11 24/5/4 14/24/25
f 20/12/11 9/11/10 18/6/27 24/5/4
f 18/6/5 25/1/1 17/4/3 8/7/6
f 9/11/10 21/16/16 25/1/28 18/6/27
f 21/16/15 7/15/14 12/2/29 25/1/29
