# Blender 4.3.2
# www.blender.org
mtllib cd.mtl
o cd_back
v -0.160753 0.000000 0.147415
v 0.160753 0.000000 0.147415
v -0.160753 0.000000 -0.147415
v 0.160753 0.000000 -0.147415
v -0.160753 0.007587 -0.147415
v -0.160753 0.007587 0.147415
v 0.160753 0.007587 0.147415
v 0.160753 0.007587 -0.147415
vn -0.0000 -1.0000 -0.0000
vn -0.0000 1.0000 -0.0000
vn -1.0000 -0.0000 -0.0000
vn -0.0000 -0.0000 -1.0000
vn -0.0000 -0.0000 1.0000
vn 1.0000 -0.0000 -0.0000
vt 0.000000 0.000000
vt 0.000000 1.000000
vt 1.000000 1.000000
vt 1.000000 0.000000
s 0
usemtl cd_front
f 6/1/2 7/4/2 8/3/2 5/2/2
f 3/2/3 1/1/3 6/1/3 5/2/3
f 4/3/4 3/2/4 5/2/4 8/3/4
f 1/1/5 2/4/5 7/4/5 6/1/5
f 2/4/6 4/3/6 8/3/6 7/4/6
usemtl cd_back
f 1/1/1 3/2/1 4/3/1 2/4/1
