# Blender 4.3.2
# www.blender.org
mtllib computer.mtl
o Panel
v 0.147020 0.461525 0.361681
v 0.165594 0.476603 -0.336406
v 0.147020 0.262774 0.361681
v 0.165594 0.247696 -0.336406
v -0.395411 0.476603 0.384267
v -0.395411 0.476603 -0.336406
v -0.395411 0.247696 0.384267
v -0.395411 0.247696 -0.336406
v 0.147020 0.461525 -0.217408
v 0.147020 0.262774 -0.217408
v 0.165594 0.476603 0.384267
v 0.165594 0.247696 0.384267
v 0.165594 0.476603 -0.239994
v 0.165594 0.247696 -0.239994
vn -0.0000 -0.0000 1.0000
vn -0.0000 -1.0000 -0.0000
vn -1.0000 -0.0000 -0.0000
vn -0.0000 -0.0000 -1.0000
vn 1.0000 -0.0000 -0.0000
vn -0.0000 1.0000 -0.0000
vn 0.7724 -0.0000 -0.6352
vn 0.6303 -0.7764 -0.0000
vn 0.6303 0.7764 -0.0000
vn 0.7724 -0.0000 0.6352
vt 1.958418 0.500000
vt 4.875253 0.500000
vt 4.875253 3.416836
vt 1.958418 3.416836
vt -0.958418 3.416836
vt 0.500000 3.416836
vt 1.958418 6.333671
vt -0.958418 6.333671
vt -0.958418 -5.333671
vt 1.958418 -5.333671
vt 1.958418 -2.416836
vt -0.958418 -2.416836
vt -3.875253 0.500000
vt -0.958418 0.500000
vt -3.875253 3.416836
vt 1.001948 0.002599
vt 1.003499 0.999370
vt 0.000586 0.996270
vt 0.000586 -0.000501
vt 0.500000 0.500000
vt 1.905652 3.224699
vt 1.905652 0.692136
vt 0.552765 0.692136
vt 0.552765 3.224701
s 0
usemtl Panel
f 9/16/5 1/17/5 3/18/5 10/19/5
usemtl Computer_Plastic
f 11/1/1 5/2/1 7/3/1 12/4/1
f 4/5/2 14/6/2 12/4/2 7/7/2 8/8/2
f 8/9/3 7/10/3 5/11/3 6/12/3
f 6/13/4 2/14/4 4/5/4 8/15/4
f 6/12/6 5/11/6 11/1/6 13/20/6 2/14/6
f 2/14/5 13/20/5 14/6/5 4/5/5
f 3/21/7 1/22/7 11/1/7 12/4/7
f 1/22/8 9/23/8 13/20/8 11/1/8
f 10/24/9 3/21/9 12/4/9 14/6/9
f 9/23/10 10/24/10 14/6/10 13/20/10
