# Blender 4.3.2
# www.blender.org
mtllib house_mesh.mtl
o Plane
v -3.000000 0.000000 1.000000
v 9.000000 0.000000 1.000000
v -3.000000 0.000000 -4.000000
v 9.000000 0.000000 -4.000000
v -3.000000 0.000000 -13.000000
v 9.000000 0.000000 -13.000000
v 13.000000 0.000000 -4.000000
v 13.000000 0.000000 -13.000000
v -3.000000 0.000000 -18.000000
v 9.000000 0.000000 -18.000000
v 3.000000 0.000000 1.000000
v 3.000000 0.000000 -4.000000
v 3.000000 0.000000 -13.000000
v 3.000000 0.000000 -18.000000
v -9.000000 0.000000 -4.000000
v -9.000000 0.000000 -13.000000
v -9.000000 0.000000 -18.000000
v -3.000000 0.000000 -23.000000
v 3.000000 0.000000 -23.000000
v -9.000000 0.000000 -23.000000
v -3.000000 0.000000 -2.000000
v -9.000000 0.000000 -2.000000
v -3.000000 0.000000 -17.555779
v -9.000000 0.000000 -17.555779
v -3.000000 -0.004914 -18.000000
v -9.000000 -0.004914 -18.000000
v -3.000000 -0.004914 -17.555779
v -9.000000 -0.004914 -17.555779
v -3.172877 0.000000 -1.732051
v -9.000000 0.000000 -1.725819
v -3.181859 0.000000 1.224648
v -3.181859 4.390384 1.224648
v -3.000000 4.390384 1.000000
v -9.000000 4.402128 -2.000000
v -3.000000 4.390384 -2.000000
v -9.000000 4.402128 -1.725819
v -3.172877 4.390384 -1.732051
v -9.244330 0.000000 -4.000000
v -9.244330 0.000000 -13.000000
v -9.244330 0.000000 -18.000000
v -9.244330 0.000000 -23.247183
v -9.244330 0.000000 -2.000000
v -9.244330 0.000000 -17.555779
v -9.244330 0.000000 -1.725819
v -9.000000 4.413873 -13.000000
v -9.000000 4.413873 -4.000000
v -9.000000 4.413873 -17.555779
v -9.000000 4.413873 -23.000000
v -9.000000 4.413873 -18.000000
v -3.000000 4.525593 -13.296900
v -9.000000 4.525593 -13.296900
v -9.244330 4.413873 -13.000000
v -9.244330 4.413873 -4.000000
v -9.244330 4.413873 -17.555779
v -9.244330 4.413873 -23.247183
v -9.244330 4.413873 -18.000000
v -9.244330 4.413873 -2.000000
v -9.244330 4.413873 -1.725819
v -3.000000 0.000000 -23.222366
v 3.183185 0.000000 -23.222366
v 3.000000 4.377708 -23.000000
v -3.000000 4.377708 -23.000000
v -9.000000 4.377708 -23.000000
v -9.244330 4.377708 -23.247183
v 3.183185 4.377708 -23.222366
v -3.000000 4.377708 -23.222366
v -3.000000 0.000000 -13.296900
v 9.000000 0.000000 -13.342775
v -9.000000 0.000000 -13.296900
v 3.000000 0.000000 -13.342775
v 6.000000 0.000000 -13.000000
v 6.000000 0.000000 -13.342775
v 3.000000 3.234373 -13.000000
v -3.000000 3.234373 -13.000000
v -3.000000 3.234373 -13.296900
v -9.000000 3.234373 -13.296900
v -9.000000 3.234373 -13.000000
v 9.000000 3.234373 -13.000000
v 9.000000 3.234373 -13.342775
v 3.000000 3.234373 -13.342775
v 6.000000 3.234373 -13.000000
v 6.000000 3.234373 -13.342775
v 3.000000 4.416737 -13.000000
v -3.000000 4.416737 -13.000000
v -3.000000 4.416737 -13.296900
v -9.000000 4.416737 -13.296900
v -9.000000 4.416737 -13.000000
v 9.000000 4.381454 -13.000000
v 9.000000 4.381454 -13.342775
v 3.000000 4.416737 -13.342775
v 6.000000 4.416737 -13.000000
v 6.000000 4.416737 -13.342775
v 3.238266 0.000000 -18.208736
v 3.164670 0.000000 -23.188597
v 9.260061 0.000000 -18.205147
v 9.000000 4.358572 -18.000000
v 3.000000 4.358572 -18.000000
v 3.000000 4.358572 -23.000000
v 3.238266 4.358572 -18.208736
v 3.164670 4.358572 -23.188597
v 9.260061 4.358572 -18.205147
v 9.276545 0.000000 -18.149637
v 9.278671 0.000000 -13.334368
v 13.000000 4.346171 -13.000000
v 13.328942 0.000000 -13.325959
v 9.000000 4.346171 -18.000000
v 9.278671 4.346171 -13.334368
v 9.276545 4.346171 -18.149637
v 13.328942 4.346171 -13.325959
v 13.253549 0.000000 -3.810172
v 13.289913 0.000000 -13.341116
v 9.380696 0.000000 -3.736084
v 9.000000 4.321059 1.000000
v 9.370924 0.000000 1.254150
v 9.000000 4.321059 -4.000000
v 13.000000 4.321059 -4.000000
v 13.000000 4.321059 -13.000000
v 13.253549 4.321059 -3.810172
v 13.289913 4.321059 -13.341116
v 9.380696 4.321059 -3.736084
v 9.370924 4.321059 1.254150
v -3.186524 0.000000 1.256456
v 9.336252 0.000000 1.256456
v 3.000000 0.000000 1.256456
v 5.369777 0.000000 1.000000
v 5.369777 0.000000 1.256456
v 6.988728 0.000000 1.000000
v 6.988728 0.000000 1.256456
v 6.988728 2.368716 1.000000
v 9.000000 2.368716 1.000000
v -3.000000 2.368716 1.000000
v 3.000000 2.368716 1.000000
v 6.988728 2.368716 1.256456
v 9.336252 2.368716 1.256456
v -3.186524 2.368716 1.256456
v 3.000000 2.368716 1.256456
v 5.369777 2.368716 1.000000
v 5.369777 2.368716 1.256456
v 6.988728 4.331487 1.000000
v 9.000000 4.331487 1.000000
v -3.000000 4.331487 1.000000
v 3.000000 4.331487 1.000000
v 6.988728 4.331487 1.256456
v 9.336252 4.331487 1.256456
v 3.000000 4.331487 1.256456
v 5.369777 4.331487 1.000000
v 5.369777 4.331487 1.256456
v -9.000000 4.567740 -2.000000
v -3.000000 4.555995 -2.000000
v -3.181859 4.555995 1.224648
v -3.000000 4.555995 1.000000
v -9.000000 4.567740 -1.725819
v -3.172877 4.555995 -1.732051
v -9.000000 4.579485 -13.000000
v -9.000000 4.579485 -4.000000
v -9.000000 4.579485 -17.555779
v -9.000000 4.579485 -23.000000
v -9.000000 4.579485 -18.000000
v -3.000000 4.525593 -13.000000
v 3.000000 4.525593 -13.000000
v -9.244330 4.579485 -13.000000
v -9.244330 4.579485 -4.000000
v -9.244330 4.579485 -17.555779
v -9.244330 4.579485 -23.247183
v -9.244330 4.579485 -18.000000
v -9.244330 4.579485 -2.000000
v -9.244330 4.579485 -1.725819
v -3.000000 4.543320 -23.000000
v -9.000000 4.543320 -23.000000
v 3.000000 4.543320 -23.000000
v -9.244330 4.543320 -23.247183
v 3.183185 4.543320 -23.222366
v -3.000000 4.543320 -23.222366
v 3.000000 4.524183 -18.000000
v 3.000000 4.524183 -23.000000
v 9.000000 4.524183 -18.000000
v 3.238266 4.524183 -18.208736
v 3.164670 4.524183 -23.188597
v 9.260061 4.524183 -18.205147
v 9.000000 4.518688 -13.342775
v 9.000000 4.511783 -18.000000
v 13.000000 4.511783 -13.000000
v 9.000000 4.518688 -13.000000
v 9.278671 4.511783 -13.334368
v 9.276545 4.511783 -18.149637
v 13.328942 4.511783 -13.325959
v 13.000000 4.486670 -4.000000
v 13.000000 4.486670 -13.000000
v 9.000000 4.486670 1.000000
v 9.000000 4.486670 -4.000000
v 13.253549 4.486670 -3.810172
v 13.289913 4.486670 -13.341116
v 9.380696 4.486670 -3.736084
v 9.370924 4.486670 1.254150
v 6.988728 4.497098 1.000000
v 9.000000 4.497098 1.000000
v -3.000000 4.497098 1.000000
v 3.000000 4.497098 1.000000
v 6.988728 4.497098 1.256456
v 9.336252 4.497098 1.256456
v 3.000000 4.497098 1.256456
v 5.369777 4.497098 1.000000
v 5.369777 4.497098 1.256456
v -9.000000 4.525593 -13.000000
v 3.000000 4.525593 -13.342775
v 6.000000 4.525593 -13.000000
v 6.000000 4.525593 -13.342775
v -6.000000 0.000000 -13.000000
v -6.000000 0.000000 -13.296900
v -6.000000 3.234373 -13.000000
v -6.000000 3.234373 -13.296900
v -8.583043 0.000000 -13.296900
v -8.583043 3.234373 -13.296900
v -8.583043 0.000000 -13.000000
v -8.583043 3.234373 -13.000000
vn -0.0000 1.0000 -0.0000
vn -1.0000 -0.0000 -0.0000
vn -0.0000 -0.0000 1.0000
vn 1.0000 -0.0000 -0.0000
vn -0.0000 -0.0000 -1.0000
vn 0.0011 -0.0000 1.0000
vn 0.7772 -0.0000 0.6292
vn -0.0051 -0.0000 1.0000
vn -1.0000 -0.0000 -0.0030
vn 0.0023 1.0000 -0.0000
vn -0.7112 -0.0000 0.7030
vn 0.7112 -0.0000 -0.7030
vn 0.7718 -0.0000 0.6358
vn 0.0040 -0.0000 -1.0000
vn -0.0076 -0.0000 -1.0000
vn -0.0000 -1.0000 -0.0000
vn 0.9999 -0.0000 -0.0148
vn 0.6193 -0.0000 0.7851
vn -0.7533 -0.0000 -0.6577
vn 0.0006 -0.0000 -1.0000
vn 0.7039 -0.0000 0.7103
vn 1.0000 -0.0000 -0.0004
vn -0.4759 -0.0000 -0.8795
vn 0.0021 -0.0000 -1.0000
vn 1.0000 -0.0000 0.0020
vn 1.0000 -0.0000 0.0038
vn 0.0191 -0.0000 0.9998
vn -0.7620 -0.0000 -0.6476
vn -0.5652 -0.0000 0.8249
vn -0.7942 -0.0039 -0.6076
vn -0.8087 -0.0000 -0.5882
vn 0.6064 -0.0000 -0.7951
vn -0.0025 0.0080 1.0000
vn 0.0020 1.0000 0.0006
vn 0.0240 0.9997 0.0029
vn 0.0480 0.9988 -0.0000
vn 0.0122 0.9999 -0.0007
vn 0.0009 1.0000 -0.0097
vn 0.0248 0.9997 -0.0000
vn 0.0051 0.9928 -0.1196
vn -0.7772 -0.0000 -0.6292
vt 0.500000 0.000000
vt 0.750000 0.000000
vt 0.875000 0.000000
vt 1.000000 0.000000
vt 1.000000 1.000000
vt 0.500000 1.000000
vt 0.750000 1.000000
vt 0.000000 1.000000
vt 0.000000 0.000000
vt 0.000000 0.500000
s 0
f 11/1/1 125/2/1 127/3/1 2/4/1 4/5/1 12/6/1
f 12/6/1 4/5/1 6/5/1 71/7/1 13/6/1
f 6/5/1 4/5/1 7/5/1 8/5/1
f 70/6/1 72/7/1 68/5/1 10/5/1 14/6/1
f 67/8/1 70/6/1 14/6/1 9/8/1 23/8/1
f 3/8/1 12/6/1 13/6/1 5/8/1
f 1/9/1 11/1/1 12/6/1 3/8/1 21/10/1
f 23/8/2 9/8/2 25/8/2 27/8/2
f 3/8/1 5/8/1 208/8/1 214/8/1 16/8/1 15/8/1
f 17/8/1 9/8/1 18/8/1 20/8/1
f 9/8/1 14/6/1 19/6/1 18/8/1
f 3/8/1 15/8/1 22/8/1 21/8/1
f 67/8/1 23/8/1 24/8/1 69/8/1 212/8/1 209/8/1
f 27/8/1 25/8/1 26/8/1 28/8/1
f 9/8/3 17/8/3 26/8/3 25/8/3
f 17/9/4 24/9/4 28/9/4 26/9/4
f 24/8/5 23/8/5 27/8/5 28/8/5
f 30/9/6 29/9/6 37/9/6 36/9/6
f 31/9/7 1/9/7 33/9/7 32/9/7
f 65/9/5 66/9/5 173/9/5 172/9/5
f 32/9/8 145/9/8 201/9/8 150/9/8
f 21/8/5 22/8/5 34/8/5 35/8/5
f 29/9/9 31/9/9 32/9/9 37/9/9
f 1/9/4 21/10/4 35/10/4 33/9/4
f 22/9/2 30/9/2 36/9/2 34/9/2
f 39/9/2 38/9/2 53/9/2 52/9/2
f 206/7/10 183/5/10 180/5/10 207/7/10
f 42/9/2 44/9/2 58/9/2 57/9/2
f 44/9/3 30/9/3 36/9/3 58/9/3
f 16/8/4 69/8/4 24/8/4 47/8/4 45/8/4
f 40/9/2 43/9/2 54/9/2 56/9/2
f 115/5/2 113/4/2 189/4/2 190/5/2
f 55/9/2 56/9/2 165/9/2 164/9/2
f 64/9/11 63/9/11 169/9/11 171/9/11
f 143/9/3 144/9/3 200/9/3 199/9/3
f 37/9/9 32/9/9 150/9/9 153/9/9
f 117/5/2 116/5/2 187/5/2 188/5/2
f 22/8/4 15/8/4 46/8/4 34/8/4
f 43/9/2 39/9/2 52/9/2 54/9/2
f 20/9/12 41/9/12 55/9/12 48/9/12
f 41/9/2 40/9/2 56/9/2 55/9/2
f 24/9/4 17/9/4 49/9/4 47/9/4
f 17/8/4 20/8/4 48/8/4 49/8/4
f 38/9/2 42/9/2 57/9/2 53/9/2
f 15/8/4 16/8/4 45/8/4 46/8/4
f 18/8/3 19/6/3 61/6/3 62/8/3
f 19/9/13 60/9/13 65/9/13 61/9/13
f 54/9/2 52/9/2 161/9/2 163/9/2
f 142/1/5 141/9/5 197/9/5 198/1/5
f 60/9/5 59/9/5 66/9/5 65/9/5
f 59/9/14 41/9/14 64/9/14 66/9/14
f 20/8/3 18/8/3 62/8/3 63/8/3
f 41/9/11 20/9/11 63/9/11 64/9/11
f 5/8/3 13/6/3 73/6/3 74/8/3
f 68/5/5 72/7/5 82/7/5 79/5/5
f 6/9/4 68/9/4 79/9/4 78/9/4
f 13/6/1 71/7/1 72/7/1 70/6/1
f 76/8/2 77/8/2 87/8/2 86/8/2
f 75/8/5 211/8/5 213/8/5 76/8/5 86/8/5 85/8/5
f 81/7/3 78/5/3 88/5/3 91/7/3
f 69/8/2 16/8/2 77/8/2 76/8/2
f 72/7/2 71/7/2 81/7/2 82/7/2
f 208/8/3 5/8/3 74/8/3 210/8/3
f 70/6/15 67/8/15 75/8/15 80/6/15
f 212/8/5 69/8/5 76/8/5 213/8/5
f 71/7/3 6/5/3 78/5/3 81/7/3
f 13/6/4 70/6/4 80/6/4 73/6/4
f 83/6/3 91/7/3 206/7/3 160/6/3
f 90/6/15 85/8/15 50/8/15 205/6/15
f 84/8/3 83/6/3 160/6/3 159/8/3
f 79/5/5 82/7/5 92/7/5 89/5/5
f 87/8/3 84/8/3 159/8/3 204/8/3
f 77/8/3 215/8/3 210/8/3 74/8/3 84/8/3 87/8/3
f 81/7/3 91/7/3 83/6/3 73/6/3
f 74/8/3 73/6/3 83/6/3 84/8/3
f 80/6/15 75/8/15 85/8/15 90/6/15
f 78/9/4 79/9/4 89/9/4 88/9/4
f 92/7/5 82/7/5 80/6/5 90/6/5
f 82/7/16 81/7/16 73/6/16 80/6/16
f 93/9/17 94/9/17 100/9/17 99/9/17
f 19/6/2 14/6/2 97/6/2 98/6/2
f 33/9/4 35/10/4 149/10/4 151/9/4
f 52/9/2 53/9/2 162/9/2 161/9/2
f 14/6/3 10/5/3 96/5/3 97/6/3
f 10/9/18 95/9/18 101/9/18 96/9/18
f 94/9/19 19/9/19 98/9/19 100/9/19
f 95/9/20 93/9/20 99/9/20 101/9/20
f 8/9/21 105/9/21 109/9/21 104/9/21
f 68/9/2 6/9/2 88/9/2 89/9/2
f 103/9/22 102/9/22 108/9/22 107/9/22
f 140/4/5 139/3/5 195/3/5 196/4/5
f 34/9/2 36/9/2 152/9/2 148/9/2
f 159/8/1 50/8/1 51/8/1 204/8/1
f 102/9/23 10/9/23 106/9/23 108/9/23
f 10/5/2 68/5/2 89/5/2 106/5/2
f 105/9/24 103/9/24 107/9/24 109/9/24
f 6/5/3 8/5/3 104/5/3 88/5/3
f 114/9/25 112/9/25 120/9/25 121/9/25
f 110/9/26 111/9/26 119/9/26 118/9/26
f 4/5/2 2/4/2 113/4/2 115/5/2
f 101/9/20 99/9/20 177/9/20 179/9/20
f 47/9/4 49/9/4 158/9/4 156/9/4
f 62/8/3 61/6/3 170/6/3 168/8/3
f 7/5/5 4/5/5 115/5/5 116/5/5
f 112/9/27 110/9/27 118/9/27 120/9/27
f 8/5/2 7/5/2 116/5/2 117/5/2
f 111/9/28 8/9/28 117/9/28 119/9/28
f 2/9/29 114/9/29 121/9/29 113/9/29
f 124/9/3 126/9/3 138/9/3 136/9/3
f 11/1/5 1/9/5 131/9/5 132/1/5
f 127/3/1 125/2/1 126/2/1 128/3/1
f 125/2/5 11/1/5 132/1/5 137/2/5
f 131/9/30 135/9/30 32/9/30 141/9/30
f 136/9/3 138/9/3 147/9/3 145/9/3
f 132/1/5 131/9/5 141/9/5 142/1/5
f 1/9/31 122/9/31 135/9/31 131/9/31
f 127/3/2 128/3/2 133/3/2 129/3/2
f 128/9/3 123/9/3 134/9/3 133/9/3
f 126/2/4 125/2/4 137/2/4 138/2/4
f 2/4/5 127/3/5 129/3/5 130/4/5
f 123/9/32 2/9/32 130/9/32 134/9/32
f 122/9/3 124/9/3 136/9/3 135/9/3
f 96/9/18 101/9/18 179/9/18 176/9/18
f 36/9/6 37/9/6 153/9/6 152/9/6
f 34/8/4 46/8/4 155/8/4 148/8/4
f 133/9/3 134/9/3 144/9/3 143/9/3
f 63/8/3 62/8/3 168/8/3 169/8/3
f 134/9/32 130/9/32 140/9/32 144/9/32
f 135/9/33 136/9/33 145/9/33 32/9/33
f 133/9/3 143/9/3 147/9/3 138/9/3
f 130/4/5 129/3/5 139/3/5 140/4/5
f 137/2/5 132/1/5 142/1/5 146/2/5
f 139/3/5 129/3/5 137/2/5 146/2/5
f 129/3/16 133/3/16 138/2/16 137/2/16
f 149/8/34 148/8/34 152/8/34 153/8/34
f 151/9/1 149/10/1 153/10/1 150/9/1
f 155/8/1 154/8/1 161/8/1 162/8/1
f 158/8/1 157/8/1 164/8/1 165/8/1
f 156/9/1 158/9/1 165/9/1 163/9/1
f 154/8/1 156/8/1 163/8/1 161/8/1
f 148/8/35 155/8/35 162/8/35 166/8/35
f 152/9/36 148/9/36 166/9/36 167/9/36
f 169/8/1 168/8/1 173/8/1 171/8/1
f 168/8/1 170/6/1 172/6/1 173/8/1
f 175/6/1 174/6/1 177/6/1 178/6/1
f 174/6/1 176/5/1 179/5/1 177/6/1
f 181/5/37 180/5/37 184/5/37 185/5/37
f 183/5/38 182/5/38 186/5/38 184/5/38
f 183/5/39 184/5/39 180/5/39
f 188/5/1 187/5/1 191/5/1 192/5/1
f 187/5/1 190/5/1 193/5/1 191/5/1
f 190/5/1 189/4/1 194/4/1 193/5/1
f 198/1/40 197/9/40 150/9/40 201/1/40
f 202/2/1 198/1/1 201/1/1 203/2/1
f 196/4/1 195/3/1 199/3/1 200/4/1
f 199/3/1 195/3/1 202/2/1 203/2/1
f 53/9/2 57/9/2 166/9/2 162/9/2
f 56/9/2 54/9/2 163/9/2 165/9/2
f 116/5/5 115/5/5 190/5/5 187/5/5
f 141/9/41 32/9/41 150/9/41 197/9/41
f 61/9/13 65/9/13 172/9/13 170/9/13
f 57/9/2 58/9/2 167/9/2 166/9/2
f 144/9/32 140/9/32 196/9/32 200/9/32
f 66/9/14 64/9/14 171/9/14 173/9/14
f 146/2/5 142/1/5 198/1/5 202/2/5
f 106/5/2 89/5/2 180/5/2 181/5/2
f 145/9/3 147/9/3 203/9/3 201/9/3
f 118/9/26 119/9/26 192/9/26 191/9/26
f 88/5/3 104/5/3 182/5/3 183/5/3
f 48/9/12 55/9/12 164/9/12 157/9/12
f 119/9/28 117/9/28 188/9/28 192/9/28
f 120/9/27 118/9/27 191/9/27 193/9/27
f 58/9/3 36/9/3 152/9/3 167/9/3
f 113/9/29 121/9/29 194/9/29 189/9/29
f 107/9/22 108/9/22 185/9/22 184/9/22
f 121/9/25 120/9/25 193/9/25 194/9/25
f 108/9/23 106/9/23 181/9/23 185/9/23
f 104/9/21 109/9/21 186/9/21 182/9/21
f 98/6/2 97/6/2 174/6/2 175/6/2
f 109/9/24 107/9/24 184/9/24 186/9/24
f 97/6/3 96/5/3 176/5/3 174/6/3
f 35/8/5 34/8/5 148/8/5 149/8/5
f 46/8/4 45/8/4 154/8/4 155/8/4
f 99/9/17 100/9/17 178/9/17 177/9/17
f 147/9/3 143/9/3 199/9/3 203/9/3
f 45/8/4 47/8/4 156/8/4 154/8/4
f 32/9/7 33/9/7 151/9/7 150/9/7
f 100/9/19 98/9/19 175/9/19 178/9/19
f 139/3/5 146/2/5 202/2/5 195/3/5
f 49/8/4 48/8/4 157/8/4 158/8/4
f 159/8/1 160/6/1 205/6/1 50/8/1
f 206/7/1 207/7/1 205/6/1 160/6/1
f 88/9/4 89/9/4 180/9/4 183/9/4
f 91/7/3 88/5/3 183/5/3 206/7/3
f 92/7/5 90/6/5 205/6/5 207/7/5
f 85/8/5 86/8/5 51/8/5 50/8/5
f 86/8/2 87/8/2 204/8/2 51/8/2
f 89/5/5 92/7/5 207/7/5 180/5/5
f 67/8/5 209/8/5 211/8/5 75/8/5
f 213/8/16 211/8/16 210/8/16 215/8/16
f 16/8/3 214/8/3 215/8/3 77/8/3
f 212/8/4 213/8/4 215/8/4 214/8/4
f 211/8/2 209/8/2 208/8/2 210/8/2
f 209/8/1 212/8/1 214/8/1 208/8/1
o Cube
v -4.207699 3.669351 -9.880094
v -4.207699 4.598755 -9.880094
v -4.207699 3.669351 -13.018414
v -4.207699 4.598755 -13.018414
v 1.416862 -0.005854 -9.880094
v 2.761205 0.016054 -9.880094
v 1.416862 -0.005854 -13.018414
v 2.761205 0.016054 -13.018414
vn -1.0000 -0.0000 -0.0000
vn -0.0000 -0.0000 -1.0000
vn 0.0163 -0.9999 -0.0000
vn -0.0000 -0.0000 1.0000
vn -0.5470 -0.8371 -0.0000
vn 0.5494 0.8355 -0.0000
vt 0.375000 0.000000
vt 0.625000 0.000000
vt 0.625000 0.250000
vt 0.375000 0.250000
vt 0.625000 0.500000
vt 0.375000 0.500000
vt 0.625000 0.750000
vt 0.375000 0.750000
vt 0.625000 1.000000
vt 0.375000 1.000000
vt 0.125000 0.500000
vt 0.125000 0.750000
vt 0.875000 0.500000
vt 0.875000 0.750000
s 0
f 216/11/42 217/12/42 219/13/42 218/14/42
f 218/14/43 219/13/43 223/15/43 222/16/43
f 222/16/44 223/15/44 221/17/44 220/18/44
f 220/18/45 221/17/45 217/19/45 216/20/45
f 218/21/46 222/16/46 220/18/46 216/22/46
f 223/15/47 219/23/47 217/24/47 221/17/47
