# Blender 4.3.2
# www.blender.org
mtllib haven_center.mtl
o Cube
v 5.509587 -1.007610 2.410280
v 5.509587 -0.238601 2.410280
v 5.509587 -1.007610 -2.653655
v 5.509587 -0.238601 -2.653655
v 6.327946 -1.007610 2.410280
v 6.327946 -0.238601 2.410280
v 6.327946 -1.007610 -2.653655
v 6.327946 -0.238601 -2.653655
vn -1.0000 -0.0000 -0.0000
vn -0.0000 -0.0000 -1.0000
vn 1.0000 -0.0000 -0.0000
vn -0.0000 -0.0000 1.0000
vn -0.0000 -1.0000 -0.0000
vn -0.0000 1.0000 -0.0000
vt 0.375000 0.000000
vt 0.625000 0.000000
vt 0.625000 0.250000
vt 0.375000 0.250000
vt 0.625000 0.500000
vt 0.375000 0.500000
vt 0.625000 0.750000
vt 0.375000 0.750000
vt 0.625000 1.000000
vt 0.375000 1.000000
vt 0.125000 0.500000
vt 0.125000 0.750000
vt 0.875000 0.500000
vt 0.875000 0.750000
s 0
usemtl Material
f 1/1/1 2/2/1 4/3/1 3/4/1
f 3/4/2 4/3/2 8/5/2 7/6/2
f 7/6/3 8/5/3 6/7/3 5/8/3
f 5/8/4 6/7/4 2/9/4 1/10/4
f 3/11/5 7/6/5 5/8/5 1/12/5
f 8/5/6 4/13/6 2/14/6 6/7/6
o Cube.001
v -6.224501 -1.007610 2.410280
v -6.224501 -0.238601 2.410280
v -6.224501 -1.007610 -2.653655
v -6.224501 -0.238601 -2.653655
v -5.406142 -1.007610 2.410280
v -5.406142 -0.238601 2.410280
v -5.406142 -1.007610 -2.653655
v -5.406142 -0.238601 -2.653655
vn -1.0000 -0.0000 -0.0000
vn -0.0000 -0.0000 -1.0000
vn 1.0000 -0.0000 -0.0000
vn -0.0000 -0.0000 1.0000
vn -0.0000 -1.0000 -0.0000
vn -0.0000 1.0000 -0.0000
vt 0.375000 0.000000
vt 0.625000 0.000000
vt 0.625000 0.250000
vt 0.375000 0.250000
vt 0.625000 0.500000
vt 0.375000 0.500000
vt 0.625000 0.750000
vt 0.375000 0.750000
vt 0.625000 1.000000
vt 0.375000 1.000000
vt 0.125000 0.500000
vt 0.125000 0.750000
vt 0.875000 0.500000
vt 0.875000 0.750000
s 0
f 9/15/7 10/16/7 12/17/7 11/18/7
f 11/18/8 12/17/8 16/19/8 15/20/8
f 15/20/9 16/19/9 14/21/9 13/22/9
f 13/22/10 14/21/10 10/23/10 9/24/10
f 11/25/11 15/20/11 13/22/11 9/26/11
f 16/19/12 12/27/12 10/28/12 14/21/12
o Cube.002
v -2.330508 -1.007610 -6.300771
v -2.330508 -0.238601 -6.300771
v 2.733427 -1.007610 -6.300771
v 2.733427 -0.238601 -6.300771
v -2.330508 -1.007610 -5.482411
v -2.330508 -0.238601 -5.482411
v 2.733427 -1.007610 -5.482412
v 2.733427 -0.238601 -5.482412
vn -0.0000 -0.0000 -1.0000
vn 1.0000 -0.0000 -0.0000
vn -0.0000 -0.0000 1.0000
vn -1.0000 -0.0000 -0.0000
vn -0.0000 -1.0000 -0.0000
vn -0.0000 1.0000 -0.0000
vt 0.375000 0.000000
vt 0.625000 0.000000
vt 0.625000 0.250000
vt 0.375000 0.250000
vt 0.625000 0.500000
vt 0.375000 0.500000
vt 0.625000 0.750000
vt 0.375000 0.750000
vt 0.625000 1.000000
vt 0.375000 1.000000
vt 0.125000 0.500000
vt 0.125000 0.750000
vt 0.875000 0.500000
vt 0.875000 0.750000
s 0
f 17/29/13 18/30/13 20/31/13 19/32/13
f 19/32/14 20/31/14 24/33/14 23/34/14
f 23/34/15 24/33/15 22/35/15 21/36/15
f 21/36/16 22/35/16 18/37/16 17/38/16
f 19/39/17 23/34/17 21/36/17 17/40/17
f 24/33/18 20/41/18 18/42/18 22/35/18
o Cube.003
v -2.330508 -1.007610 5.433318
v -2.330508 -0.238601 5.433318
v 2.733428 -1.007610 5.433318
v 2.733428 -0.238601 5.433318
v -2.330508 -1.007610 6.251678
v -2.330508 -0.238601 6.251678
v 2.733428 -1.007610 6.251677
v 2.733428 -0.238601 6.251677
vn -0.0000 -0.0000 -1.0000
vn 1.0000 -0.0000 -0.0000
vn -0.0000 -0.0000 1.0000
vn -1.0000 -0.0000 -0.0000
vn -0.0000 -1.0000 -0.0000
vn -0.0000 1.0000 -0.0000
vt 0.375000 0.000000
vt 0.625000 0.000000
vt 0.625000 0.250000
vt 0.375000 0.250000
vt 0.625000 0.500000
vt 0.375000 0.500000
vt 0.625000 0.750000
vt 0.375000 0.750000
vt 0.625000 1.000000
vt 0.375000 1.000000
vt 0.125000 0.500000
vt 0.125000 0.750000
vt 0.875000 0.500000
vt 0.875000 0.750000
s 0
f 25/43/19 26/44/19 28/45/19 27/46/19
f 27/46/20 28/45/20 32/47/20 31/48/20
f 31/48/21 32/47/21 30/49/21 29/50/21
f 29/50/22 30/49/22 26/51/22 25/52/22
f 27/53/23 31/48/23 29/50/23 25/54/23
f 32/47/24 28/55/24 26/56/24 30/49/24
o Cylinder
v 0.000000 0.567057 -2.964835
v 2.096455 0.567057 -2.096455
v 2.964835 0.567057 0.000000
v 2.096455 0.567057 2.096455
v 0.000000 0.567057 2.964835
v -2.096455 0.567057 2.096455
v -2.964835 0.567057 0.000000
v -2.096455 0.567057 -2.096455
v 2.295454 0.567057 -2.295454
v 0.000000 0.567057 -3.246262
v 3.246262 0.567057 0.000000
v 2.295454 0.567057 2.295454
v 0.000000 0.567057 3.246262
v -2.295454 0.567057 2.295454
v -3.246262 0.567057 0.000000
v -2.295454 0.567057 -2.295454
v 2.096455 0.201146 -2.096455
v 0.000000 0.201146 -2.964835
v 2.964835 0.201146 0.000000
v 2.096455 0.201146 2.096455
v 0.000000 0.201146 2.964835
v -2.096455 0.201146 2.096455
v -2.964835 0.201146 0.000000
v -2.096455 0.201146 -2.096455
v 0.000000 -0.325665 -3.246262
v 2.295454 -0.325665 -2.295454
v 3.246262 -0.325665 0.000000
v 2.295454 -0.325665 2.295454
v 0.000000 -0.325665 3.246262
v -2.295454 -0.325665 2.295454
v -3.246262 -0.325665 0.000000
v -2.295454 -0.325665 -2.295454
v 0.000000 -0.857632 -4.217759
v 2.982406 -0.857632 -2.982406
v 2.982406 -0.217853 -2.982406
v 4.217759 -0.857632 0.000000
v 4.217759 -0.217853 0.000000
v 2.982406 -0.857632 2.982406
v 2.982406 -0.217853 2.982406
v 0.000000 -0.857632 4.217759
v 0.000000 -0.217853 4.217759
v -2.982406 -0.857632 2.982406
v -2.982406 -0.217853 2.982406
v -4.217759 -0.857632 0.000000
v -4.217759 -0.217853 0.000000
v -2.982406 -0.857632 -2.982406
v -2.982406 -0.217853 -2.982406
v 0.000000 -0.217853 -4.217759
vn 0.3827 -0.0000 -0.9239
vn 0.9239 -0.0000 -0.3827
vn 0.9239 -0.0000 0.3827
vn 0.3827 -0.0000 0.9239
vn -0.3827 -0.0000 0.9239
vn -0.9239 -0.0000 0.3827
vn -0.9239 -0.0000 -0.3827
vn -0.3827 -0.0000 -0.9239
vn -0.0000 1.0000 -0.0000
vn -0.0000 0.9939 0.1103
vn -0.0780 0.9939 0.0780
vn -0.1103 0.9939 -0.0000
vn -0.0780 0.9939 -0.0780
vn -0.0000 0.9939 -0.1103
vn 0.0780 0.9939 0.0780
vn 0.1103 0.9939 -0.0000
vn 0.0780 0.9939 -0.0780
vt 3.701775 -0.070063
vt 3.701775 0.812899
vt 1.244359 0.812899
vt 1.244359 -0.070062
vt -1.213055 0.812900
vt -1.213055 -0.070062
vt -3.670470 0.812900
vt -3.670470 -0.070062
vt -6.127885 0.812900
vt -6.127885 -0.070061
vt -8.585300 0.812900
vt -8.585300 -0.070061
vt -11.042715 0.812901
vt -11.042715 -0.070061
vt 2.935812 2.914611
vt 1.348799 4.501624
vt 1.092890 4.245715
vt 2.679903 2.658702
vt -13.500130 0.812901
vt -13.500130 -0.070061
vt 6.159189 -0.070063
vt 6.159189 0.812899
vt 3.595255 1.070061
vt 1.350880 1.070062
vt 1.137840 1.070062
vt -1.106535 1.070062
vt -1.319576 1.070062
vt -3.563950 1.070062
vt -3.776990 1.070062
vt -6.021365 1.070062
vt -6.234406 1.070062
vt -8.478780 1.070063
vt -8.691818 1.070063
vt -10.936195 1.070063
vt -11.149235 1.070063
vt -13.393609 1.070063
vt 6.052670 1.070061
vt 3.808294 1.070061
vt -1.151484 4.245715
vt -2.738497 2.658702
vt -2.738498 0.414327
vt -1.151485 -1.172686
vt 1.092890 -1.172686
vt 2.679903 0.414327
vt 1.092890 4.607625
vt -1.151484 4.607625
vt -3.100408 2.658702
vt -3.100408 0.414327
vt -1.151485 -1.534596
vt 1.092890 -1.534596
vt 3.041813 0.414327
vt 3.041813 2.658702
vt -1.407394 4.501625
vt -2.994407 2.914612
vt -2.994407 0.158418
vt -1.407394 -1.428595
vt 1.348799 -1.428595
vt 2.935812 0.158418
vt 3.797271 -4.249402
vt 3.772441 -6.706692
vt 4.662794 -7.083417
vt 4.695054 -3.890744
vt 2.026031 -8.435546
vt 2.393741 -9.329659
vt -0.431385 -8.435546
vt -0.799095 -9.329659
vt -2.177796 -6.706692
vt -3.068148 -7.083418
vt -3.100408 6.505978
vt -3.100408 5.873194
vt 0.092428 5.873193
vt 0.092428 6.505978
vt 0.092429 4.607625
vt 0.092429 5.240409
vt -3.100408 5.240409
vt -3.100408 4.607625
vt 0.092428 7.138761
vt 0.092428 7.771546
vt -3.100408 7.771546
vt -3.100408 7.138761
vt -3.100408 9.037114
vt -3.100408 8.404329
vt 0.092427 8.404329
vt 0.092427 9.037114
vt 0.092428 6.505978
vt 0.092428 7.138762
vt -3.100408 7.138762
vt -3.100408 6.505978
vt -3.100408 5.873194
vt -3.100408 5.240409
vt 0.092429 5.240409
vt 0.092429 5.873193
vt -3.100408 7.771546
vt 0.092428 7.771546
vt 0.092428 8.404329
vt 0.092427 9.037114
vt 0.092427 9.669898
vt -3.100408 9.669898
vt -3.100408 9.037114
vt 2.086150 -2.485611
vt 2.471853 -1.599111
vt -0.370764 -2.435956
vt -0.720333 -1.534595
vt -2.151753 -4.129168
vt -3.034312 -3.734528
vt -2.202626 -4.249403
vt -3.100408 -3.890746
s 1
usemtl Stone
f 57/57/25 42/58/25 41/59/25 58/60/25
f 58/60/26 41/59/26 43/61/26 59/62/26
f 59/62/27 43/61/27 44/63/27 60/64/27
f 60/64/28 44/63/28 45/65/28 61/66/28
f 61/66/29 45/65/29 46/67/29 62/68/29
f 62/68/30 46/67/30 47/69/30 63/70/30
f 34/71/29 33/72/29 50/73/29 49/74/29
f 63/70/31 47/69/31 48/75/31 64/76/31
f 64/77/32 48/78/32 42/58/32 57/57/32
f 33/79/33 34/80/33 41/59/33 42/58/33
f 34/81/33 35/82/33 43/61/33 41/59/33
f 35/83/33 36/84/33 44/63/33 43/61/33
f 36/85/33 37/86/33 45/65/33 44/63/33
f 37/87/33 38/88/33 46/67/33 45/65/33
f 38/89/33 39/90/33 47/69/33 46/67/33
f 39/91/33 40/92/33 48/75/33 47/69/33
f 40/93/33 33/94/33 42/58/33 48/78/33
f 49/74/33 50/73/33 56/95/33 55/96/33 54/97/33 53/98/33 52/99/33 51/100/33
f 33/101/28 40/102/28 56/95/28 50/73/28
f 39/103/26 38/104/26 54/97/26 55/96/26
f 37/105/32 36/106/32 52/99/32 53/98/32
f 35/107/30 34/108/30 49/74/30 51/100/30
f 40/109/27 39/110/27 55/96/27 56/95/27
f 38/111/25 37/112/25 53/98/25 54/97/25
f 36/113/31 35/114/31 51/100/31 52/99/31
f 57/115/34 58/116/35 67/117/35 80/118/34
f 58/116/35 59/119/36 69/120/36 67/117/35
f 59/119/36 60/121/37 71/122/37 69/120/36
f 60/121/37 61/123/38 73/124/38 71/122/37
f 78/125/32 79/126/32 80/127/32 65/128/32
f 76/129/31 77/130/31 79/131/31 78/132/31
f 74/133/30 75/134/30 77/135/30 76/136/30
f 72/137/29 73/138/29 75/139/29 74/140/29
f 70/141/28 71/142/28 73/143/28 72/144/28
f 68/145/27 69/146/27 71/147/27 70/148/27
f 66/138/26 67/149/26 69/150/26 68/151/26
f 65/152/25 80/153/25 67/154/25 66/155/25
f 64/156/39 57/115/34 80/118/34 79/157/39
f 63/158/40 64/156/39 79/157/39 77/159/40
f 62/160/41 63/158/40 77/159/40 75/161/41
f 61/123/38 62/162/41 75/163/41 73/124/38
o Geo_Center
v -3.413897 -0.853450 3.413897
v 3.413897 -0.853450 3.413897
v -3.413897 -0.853450 -3.413897
v 3.413897 -0.853450 -3.413897
v -8.290891 -0.853450 3.413897
v -8.290891 -0.853450 -3.413897
v -3.413897 -0.853450 -8.290891
v 3.413897 -0.853450 -8.290891
v -3.413897 -0.853450 8.290891
v 3.413897 -0.853450 8.290891
v 8.290891 -0.853450 3.413897
v 8.290891 -0.853450 -3.413897
v -9.295803 -0.853450 3.444916
v -9.295803 -0.853450 -3.444916
v -3.444916 -0.853450 -9.295803
v 3.444916 -0.853450 -9.295803
v -3.444916 -0.853450 9.295803
v 3.444916 -0.853450 9.295803
v 9.295803 -0.853450 3.444916
v 9.295803 -0.853450 -3.444916
v 3.413897 0.214457 -8.290891
v 8.290891 0.214457 -3.413897
v -8.290891 0.214457 -3.413897
v -3.413897 0.214457 -8.290891
v -8.290891 0.214457 3.413897
v -3.413897 0.214457 8.290891
v 3.413897 0.214457 8.290891
v 8.290891 0.214457 3.413897
v 3.444916 0.214457 -9.295803
v 9.295803 0.214457 -3.444916
v -9.295803 0.214457 -3.444916
v -3.444916 0.214457 -9.295803
v -9.295803 0.214457 3.444916
v -3.444916 0.214457 9.295803
v 3.444916 0.214457 9.295803
v 9.295803 0.214457 3.444916
v -7.315493 -0.853450 3.413897
v -3.413897 -0.853450 7.315493
v -7.315493 -0.853450 -3.413897
v -3.413897 -0.853450 -7.315493
v 3.413897 -0.853450 -7.315493
v 7.315493 -0.853450 -3.413897
v 3.413897 -0.853450 7.071642
v 7.071642 -0.853450 3.413897
v -7.315493 -0.153450 -3.413897
v -8.290891 -0.153450 -3.413897
v 3.413897 -0.153450 -7.315493
v 3.413897 -0.153450 -8.290891
v -3.413897 -0.153450 7.315493
v -3.413897 -0.153450 8.290891
v 7.071642 -0.153450 3.413897
v 8.290891 -0.153450 3.413897
v 8.290891 -0.153450 -3.413897
v -3.413897 -0.153450 -8.290891
v -8.290891 -0.153450 3.413897
v 3.413897 -0.153450 8.290891
v -7.315493 -0.153450 3.413897
v -3.413897 -0.153450 -7.315493
v 7.315493 -0.153450 -3.413897
v 3.413897 -0.153450 7.071642
vn -0.0000 1.0000 -0.0000
vn -0.0000 -0.0000 -1.0000
vn 0.7071 -0.0000 0.7071
vn -0.0000 -0.0000 1.0000
vn 1.0000 -0.0000 -0.0000
vn 0.7071 -0.0000 -0.7071
vn 0.0309 -0.0000 0.9995
vn -0.7071 -0.0000 0.7071
vn 0.0309 -0.0000 -0.9995
vn -0.7071 -0.0000 -0.7071
vn -0.9995 -0.0000 -0.0309
vn -0.9995 -0.0000 0.0309
vn -0.0309 -0.0000 0.9995
vn 0.9995 -0.0000 -0.0309
vn -0.0309 -0.0000 -0.9995
vn 0.9995 -0.0000 0.0309
vn -1.0000 -0.0000 -0.0000
vt 0.000000 0.000000
vt 1.000000 0.000000
vt 1.000000 1.000000
vt 0.000000 1.000000
vt 0.000000 1.000000
vt 1.000000 1.000000
vt 1.000000 0.000000
s 0
f 81/164/42 82/165/42 84/166/42 83/167/42
f 81/164/42 83/167/42 119/168/42 86/167/42 85/164/42 117/164/42
f 83/167/42 84/166/42 121/169/42 88/166/42 87/167/42 120/168/42
f 82/165/42 81/164/42 118/164/42 89/164/42 90/165/42 123/170/42
f 84/166/42 82/165/42 124/170/42 91/165/42 92/166/42 122/169/42
f 91/165/43 124/170/43 131/170/43 132/165/43
f 119/168/44 120/168/44 138/168/44 125/168/44
f 86/167/45 119/168/45 125/168/45 126/167/45
f 120/168/46 87/167/46 134/167/46 138/168/46
f 86/167/44 87/167/44 104/167/44 103/167/44
f 85/164/42 86/167/42 94/167/42 93/164/42
f 92/166/42 91/165/42 99/165/42 100/166/42
f 100/164/47 96/164/47 109/164/47 110/164/47
f 87/167/42 88/166/42 96/166/42 95/167/42
f 92/166/48 100/166/48 110/166/48 102/166/48
f 90/165/42 89/164/42 97/164/42 98/165/42
f 88/166/49 92/166/49 102/166/49 101/166/49
f 103/167/42 104/167/42 112/167/42 111/167/42
f 106/164/42 105/164/42 113/164/42 114/164/42
f 101/166/42 102/166/42 110/166/42 109/166/42
f 108/165/42 107/165/42 115/165/42 116/165/42
f 99/165/50 91/165/50 108/165/50 116/165/50
f 95/164/51 94/164/51 111/164/51 112/164/51
f 89/164/47 85/164/47 105/164/47 106/164/47
f 93/164/49 97/164/49 114/164/49 113/164/49
f 91/165/51 90/165/51 107/165/51 108/165/51
f 96/166/52 88/166/52 101/166/52 109/166/52
f 98/164/44 99/164/44 116/164/44 115/164/44
f 90/165/53 98/164/53 115/165/53 107/165/53
f 94/167/54 86/167/54 103/167/54 111/167/54
f 87/167/55 95/167/55 112/167/55 104/167/55
f 85/164/56 93/164/56 113/164/56 105/164/56
f 89/164/57 106/164/57 114/164/57 97/164/57
f 81/164/42 117/164/42 118/164/42
f 83/167/42 120/168/42 119/168/42
f 84/166/42 122/169/42 121/169/42
f 82/165/42 123/170/42 124/170/42
f 139/169/42 133/166/42 128/166/42 127/169/42
f 138/168/42 134/167/42 126/167/42 125/168/42
f 137/164/42 135/164/42 130/164/42 129/164/42
f 140/170/42 136/165/42 132/165/42 131/170/42
f 92/166/47 88/166/47 128/166/47 133/166/47
f 122/169/45 92/166/45 133/166/45 139/169/45
f 87/167/51 86/167/51 126/167/51 134/167/51
f 117/164/43 85/164/43 135/164/43 137/164/43
f 88/166/58 121/169/58 127/169/58 128/166/58
f 121/169/49 122/169/49 139/169/49 127/169/49
f 85/164/49 89/164/49 130/164/49 135/164/49
f 123/170/58 90/165/58 136/165/58 140/170/58
f 90/165/44 91/165/44 132/165/44 136/165/44
f 118/164/47 117/164/47 137/164/47 129/164/47
f 89/164/46 118/164/46 129/164/46 130/164/46
f 124/170/51 123/170/51 140/170/51 131/170/51
o Cylinder.001
v 0.000000 0.567057 -3.105549
v 2.195954 0.567057 -2.195954
v 3.105549 0.567057 0.000000
v 2.195954 0.567057 2.195954
v 0.000000 0.567057 3.105549
v -2.195954 0.567057 2.195954
v -3.105549 0.567057 0.000000
v -2.195954 0.567057 -2.195954
v 0.000000 1.878479 -3.105549
v 2.195954 1.878479 -2.195954
v 3.105549 1.878479 0.000000
v 2.195954 1.878479 2.195954
v 0.000000 1.878479 3.105549
v -2.195954 1.878479 2.195954
v -3.105549 1.878479 0.000000
v -2.195954 1.878479 -2.195954
vn -0.3827 -0.0000 0.9239
vn -0.9239 -0.0000 0.3827
vn -0.9239 -0.0000 -0.3827
vn -0.3827 -0.0000 -0.9239
vn 0.3827 -0.0000 -0.9239
vn 0.3827 -0.0000 0.9239
vn 0.9239 -0.0000 0.3827
vn 0.9239 -0.0000 -0.3827
vt -22.100010 -18.883266
vt -22.100010 -28.574898
vt -16.752748 -28.574898
vt -16.752748 -18.883266
vt -22.100010 -9.191633
vt -16.752748 -9.191633
vt -22.100008 0.500000
vt -16.752747 0.500000
vt -22.100008 10.191633
vt -16.752745 10.191633
vt -22.100008 19.883265
vt -16.752745 19.883265
vt -22.100010 -38.266533
vt -16.752748 -38.266533
vt -22.100008 39.266533
vt -22.100008 29.574898
vt -16.752745 29.574898
vt -16.752745 39.266533
s 1
usemtl Grate
f 146/171/59 145/172/59 153/173/59 154/174/59
f 147/175/60 146/171/60 154/174/60 155/176/60
f 148/177/61 147/175/61 155/176/61 156/178/61
f 141/179/62 148/177/62 156/178/62 149/180/62
f 142/181/63 141/179/63 149/180/63 150/182/63
f 145/172/64 144/183/64 152/184/64 153/173/64
f 144/185/65 143/186/65 151/187/65 152/188/65
f 143/186/66 142/181/66 150/182/66 151/187/66
o ref_PLAYER
v 1.337402 -0.827577 4.480896
v 1.337402 0.929214 4.480896
v 1.579143 -0.827577 4.545671
v 1.579143 0.929214 4.545671
v 1.756110 -0.827577 4.722638
v 1.756110 0.929214 4.722638
v 1.820885 -0.827577 4.964379
v 1.820885 0.929214 4.964379
v 1.756110 -0.827577 5.206120
v 1.756110 0.929214 5.206120
v 1.579143 -0.827577 5.383088
v 1.579143 0.929214 5.383088
v 1.337402 -0.827577 5.447862
v 1.337402 0.929214 5.447862
v 1.095661 -0.827577 5.383088
v 1.095661 0.929214 5.383088
v 0.918694 -0.827577 5.206120
v 0.918694 0.929214 5.206120
v 0.853919 -0.827577 4.964379
v 0.853919 0.929214 4.964379
v 0.918694 -0.827577 4.722638
v 0.918694 0.929214 4.722638
v 1.095661 -0.827577 4.545671
v 1.095661 0.929214 4.545671
vn 0.2588 -0.0000 -0.9659
vn 0.7071 -0.0000 -0.7071
vn 0.9659 -0.0000 -0.2588
vn 0.9659 -0.0000 0.2588
vn 0.7071 -0.0000 0.7071
vn 0.2588 -0.0000 0.9659
vn -0.2588 -0.0000 0.9659
vn -0.7071 -0.0000 0.7071
vn -0.9659 -0.0000 0.2588
vn -0.9659 -0.0000 -0.2588
vn -0.0000 1.0000 -0.0000
vn -0.7071 -0.0000 -0.7071
vn -0.2588 -0.0000 -0.9659
vn -0.0000 -1.0000 -0.0000
vt 1.000000 0.500000
vt 1.000000 1.000000
vt 0.916667 1.000000
vt 0.916667 0.500000
vt 0.833333 1.000000
vt 0.833333 0.500000
vt 0.750000 1.000000
vt 0.750000 0.500000
vt 0.666667 1.000000
vt 0.666667 0.500000
vt 0.583333 1.000000
vt 0.583333 0.500000
vt 0.500000 1.000000
vt 0.500000 0.500000
vt 0.416667 1.000000
vt 0.416667 0.500000
vt 0.333333 1.000000
vt 0.333333 0.500000
vt 0.250000 1.000000
vt 0.250000 0.500000
vt 0.166667 1.000000
vt 0.166667 0.500000
vt 0.370000 0.457846
vt 0.250000 0.490000
vt 0.130000 0.457846
vt 0.042154 0.370000
vt 0.010000 0.250000
vt 0.042154 0.130000
vt 0.130000 0.042154
vt 0.250000 0.010000
vt 0.370000 0.042154
vt 0.457846 0.130000
vt 0.490000 0.250000
vt 0.457846 0.370000
vt 0.083333 1.000000
vt 0.083333 0.500000
vt 0.000000 1.000000
vt 0.000000 0.500000
vt 0.750000 0.490000
vt 0.870000 0.457846
vt 0.957846 0.370000
vt 0.990000 0.250000
vt 0.957846 0.130000
vt 0.870000 0.042154
vt 0.750000 0.010000
vt 0.630000 0.042154
vt 0.542154 0.130000
vt 0.510000 0.250000
vt 0.542154 0.370000
vt 0.630000 0.457846
s 0
usemtl Material.001
f 157/189/67 158/190/67 160/191/67 159/192/67
f 159/192/68 160/191/68 162/193/68 161/194/68
f 161/194/69 162/193/69 164/195/69 163/196/69
f 163/196/70 164/195/70 166/197/70 165/198/70
f 165/198/71 166/197/71 168/199/71 167/200/71
f 167/200/72 168/199/72 170/201/72 169/202/72
f 169/202/73 170/201/73 172/203/73 171/204/73
f 171/204/74 172/203/74 174/205/74 173/206/74
f 173/206/75 174/205/75 176/207/75 175/208/75
f 175/208/76 176/207/76 178/209/76 177/210/76
f 160/211/77 158/212/77 180/213/77 178/214/77 176/215/77 174/216/77 172/217/77 170/218/77 168/219/77 166/220/77 164/221/77 162/222/77
f 177/210/78 178/209/78 180/223/78 179/224/78
f 179/224/79 180/223/79 158/225/79 157/226/79
f 157/227/80 159/228/80 161/229/80 163/230/80 165/231/80 167/232/80 169/233/80 171/234/80 173/235/80 175/236/80 177/237/80 179/238/80
